<svg width="12" height="12" viewBox="0 0 12 12" fill="none" xmlns="http://www.w3.org/2000/svg">
<g clip-path="url(#clip0)">
<path d="M6.125 1H5.575C5.41 0.425 4.88 0 4.25 0C3.62 0 3.09 0.425 2.925 1H2.375C2.17 1 2 1.17 2 1.375V2.125C2 2.605 2.395 3 2.875 3H5.625C6.105 3 6.5 2.605 6.5 2.125V1.375C6.5 1.17 6.33 1 6.125 1Z" fill="#412507"/>
<path d="M7.125 1.5H7V2.125C7 2.885 6.385 3.5 5.625 3.5H2.875C2.115 3.5 1.5 2.885 1.5 2.125V1.5H1.375C0.615 1.5 0 2.115 0 2.875V9.125C0 9.885 0.615 10.5 1.375 10.5H4.67C4.42 9.965 4.27 9.375 4.255 8.75H1.875C1.67 8.75 1.5 8.58 1.5 8.375C1.5 8.17 1.67 8 1.875 8H4.295C4.34 7.695 4.415 7.405 4.515 7.125H1.875C1.67 7.125 1.5 6.955 1.5 6.75C1.5 6.545 1.67 6.375 1.875 6.375H4.875C5.07 6.055 5.3 5.76 5.57 5.5H1.875C1.67 5.5 1.5 5.33 1.5 5.125C1.5 4.92 1.67 4.75 1.875 4.75H6.595C7.17 4.45 7.815 4.27 8.5 4.255V2.875C8.5 2.115 7.885 1.5 7.125 1.5Z" fill="#412507"/>
<path d="M8.625 5.25C6.764 5.25 5.25 6.764 5.25 8.625C5.25 10.486 6.764 12 8.625 12C10.486 12 12 10.486 12 8.625C12 6.764 10.486 5.25 8.625 5.25ZM10 9.125H9.125V10C9.125 10.276 8.901 10.5 8.625 10.5C8.349 10.5 8.125 10.276 8.125 10V9.125H7.25C6.974 9.125 6.75 8.901 6.75 8.625C6.75 8.349 6.974 8.125 7.25 8.125H8.125V7.25C8.125 6.974 8.349 6.75 8.625 6.75C8.901 6.75 9.125 6.974 9.125 7.25V8.125H10C10.276 8.125 10.5 8.349 10.5 8.625C10.5 8.901 10.276 9.125 10 9.125Z" fill="#412507"/>
</g>
<defs>
<clipPath id="clip0">
<rect width="12" height="12" fill="white"/>
</clipPath>
</defs>
</svg>
