<svg width="10" height="10" viewBox="0 0 10 10" fill="none" xmlns="http://www.w3.org/2000/svg">
<path d="M7.77802 4.6098L3.3279 0.159755C3.22497 0.0567475 3.08757 0 2.94107 0C2.79457 0 2.65717 0.0567475 2.55424 0.159755L2.22652 0.487394C2.01327 0.700889 2.01327 1.04788 2.22652 1.26105L5.9634 4.99793L2.22238 8.73895C2.11945 8.84196 2.06262 8.97928 2.06262 9.1257C2.06262 9.27228 2.11945 9.4096 2.22238 9.51269L2.5501 9.84025C2.65311 9.94325 2.79042 10 2.93692 10C3.08343 10 3.22082 9.94325 3.32375 9.84025L7.77802 5.38614C7.88119 5.2828 7.93786 5.14484 7.93753 4.99817C7.93786 4.85094 7.88119 4.71305 7.77802 4.6098Z" fill="#412507"/>
</svg>
