<?xml version="1.0" encoding="iso-8859-1"?>
<!-- Generator: Adobe Illustrator 19.0.0, SVG Export Plug-In . SVG Version: 6.00 Build 0)  -->
<svg version="1.1" id="Capa_1" xmlns="http://www.w3.org/2000/svg" xmlns:xlink="http://www.w3.org/1999/xlink" x="0px" y="0px"
	 viewBox="0 0 512 512" style="enable-background:new 0 0 512 512;" xml:space="preserve">
<circle style="fill:#FFD93B;" cx="256" cy="256" r="256"/>
<path style="fill:#F4C534;" d="M512,255.984c0,141.44-114.56,256-256,256c-81.12,0-153.44-37.76-200.48-96.64
	c43.68,34.88,99.2,55.68,159.52,55.68c141.44,0,256-114.56,256-256c0-60.32-20.8-115.84-55.68-159.52
	C474.24,102.544,512,174.864,512,255.984z"/>
<g>
	<ellipse style="fill:#3E4347;" cx="161.28" cy="207.76" rx="47.584" ry="55.12"/>
	<ellipse style="fill:#3E4347;" cx="350.72" cy="207.76" rx="47.584" ry="55.12"/>
</g>
<g>
	<path style="fill:#FFFFFF;" d="M369.296,178.48c4.112-1.456,9.28,2.912,11.664,9.68c2.384,6.896,1.056,13.52-3.056,14.992
		c-4.112,1.328-9.408-2.912-11.808-9.808C363.728,186.56,365.184,179.936,369.296,178.48z"/>
	<path style="fill:#FFFFFF;" d="M186.496,203.104c-4.112,1.456-9.28-2.912-11.664-9.68c-2.384-6.896-1.056-13.52,3.056-14.992
		c4.112-1.328,9.424,2.912,11.808,9.808C192.064,195.024,190.608,201.648,186.496,203.104z"/>
</g>
<path style="fill:#3E4347;" d="M254.672,307.072c-95.328-0.464-113.36,74.704-104.336,77.92c7.104,4.688,37.04-39.152,104.336-37.44
	c67.28-1.696,97.232,42.144,104.336,37.44C368.032,381.776,350,306.592,254.672,307.072z"/>
<g>
</g>
<g>
</g>
<g>
</g>
<g>
</g>
<g>
</g>
<g>
</g>
<g>
</g>
<g>
</g>
<g>
</g>
<g>
</g>
<g>
</g>
<g>
</g>
<g>
</g>
<g>
</g>
<g>
</g>
</svg>
