<svg width="14" height="14" viewBox="0 0 14 14" fill="none" xmlns="http://www.w3.org/2000/svg">
<g clip-path="url(#clip0)">
<path d="M2.1875 8.75005H3.6458C3.8873 8.75005 4.0833 8.55405 4.0833 8.31255V6.85425C4.0833 6.61275 3.8873 6.41675 3.6458 6.41675H2.1875C1.946 6.41675 1.75 6.61275 1.75 6.85425V8.31255C1.75 8.55405 1.946 8.75005 2.1875 8.75005Z" fill="#412507"/>
<path d="M2.1875 12.25H3.6458C3.8873 12.25 4.0833 12.054 4.0833 11.8125V10.3542C4.0833 10.1127 3.8873 9.91675 3.6458 9.91675H2.1875C1.946 9.91675 1.75 10.1127 1.75 10.3542V11.8125C1.75 12.054 1.946 12.25 2.1875 12.25Z" fill="#412507"/>
<path d="M6.27087 8.75005H7.72928C7.97078 8.75005 8.16678 8.55405 8.16678 8.31255V6.85425C8.16678 6.61275 7.97078 6.41675 7.72928 6.41675H6.27087C6.02937 6.41675 5.83337 6.61275 5.83337 6.85425V8.31255C5.83337 8.55405 6.02937 8.75005 6.27087 8.75005Z" fill="#412507"/>
<path d="M6.27087 12.25H7.72928C7.97078 12.25 8.16678 12.054 8.16678 11.8125V10.3542C8.16678 10.1127 7.97078 9.91675 7.72928 9.91675H6.27087C6.02937 9.91675 5.83337 10.1127 5.83337 10.3542V11.8125C5.83337 12.054 6.02937 12.25 6.27087 12.25Z" fill="#412507"/>
<path d="M10.3541 8.75005H11.8124C12.0539 8.75005 12.2499 8.55405 12.2499 8.31255V6.85425C12.2499 6.61275 12.0539 6.41675 11.8124 6.41675H10.3541C10.1126 6.41675 9.91663 6.61275 9.91663 6.85425V8.31255C9.91663 8.55405 10.1126 8.75005 10.3541 8.75005Z" fill="#412507"/>
<path d="M12.25 1.75H11.6667V0.583298C11.6667 0.261368 11.4053 0 11.0833 0H10.5C10.178 0 9.9167 0.261368 9.9167 0.583298V1.75H4.0833V0.583298C4.0833 0.261368 3.82204 0 3.5 0H2.9167C2.59467 0 2.3333 0.261368 2.3333 0.583298V1.75H1.75C0.785172 1.75 0 2.53517 0 3.5V12.25C0 13.2148 0.785172 14 1.75 14H12.25C13.2148 14 14 13.2148 14 12.25V3.5C14 2.53517 13.2148 1.75 12.25 1.75ZM12.8333 12.25C12.8333 12.5714 12.5714 12.8333 12.25 12.8333H1.75C1.4286 12.8333 1.1667 12.5714 1.1667 12.25V5.85669H12.8333V12.25Z" fill="#412507"/>
</g>
<defs>
<clipPath id="clip0">
<rect width="14" height="14" fill="white"/>
</clipPath>
</defs>
</svg>
