<svg width="18" height="18" viewBox="0 0 18 18" fill="none" xmlns="http://www.w3.org/2000/svg">
<g clip-path="url(#clip0)">
<path d="M6.30568 3.512C5.90455 3.11087 5.72722 2.91417 5.72729 2.45418C5.72722 1.99437 5.90462 1.79767 6.30586 1.39636C6.6254 1.0769 6.6254 0.558939 6.30593 0.239403C5.98647 -0.0801676 5.46833 -0.0800622 5.1488 0.239333C4.70235 0.685748 4.09077 1.29719 4.09094 2.45415C4.09077 3.61128 4.70224 4.22268 5.14876 4.66903C5.54993 5.07027 5.72733 5.26707 5.72733 5.72695C5.72733 6.17885 6.09366 6.54515 6.54552 6.54515C6.99739 6.54515 7.36371 6.17889 7.36371 5.72695C7.36364 4.56985 6.75221 3.95841 6.30568 3.512Z" fill="#412507"/>
<path d="M10.1239 3.512C9.72273 3.11087 9.5454 2.91417 9.54547 2.45418C9.5454 1.99437 9.7228 1.79767 10.124 1.39636C10.4436 1.0769 10.4436 0.558939 10.1241 0.239403C9.80464 -0.0801676 9.28651 -0.0800622 8.96697 0.239333C8.52052 0.685748 7.90894 1.29726 7.90912 2.45415C7.90894 3.61128 8.52042 4.22268 8.96694 4.66903C9.36811 5.07027 9.54551 5.26707 9.54551 5.72695C9.54551 6.17885 9.91184 6.54515 10.3637 6.54515C10.8156 6.54515 11.1819 6.17889 11.1819 5.72695C11.1819 4.56985 10.5704 3.95841 10.1239 3.512Z" fill="#412507"/>
<path d="M13.4087 14.1818H14.1819C14.1826 14.1818 14.1832 14.1817 14.184 14.1817C15.8372 14.1806 17.1819 12.8353 17.1819 11.1818C17.1819 9.52758 15.8361 8.18176 14.1819 8.18176H13.091H2.18182C1.72996 8.18176 1.36363 8.54816 1.36363 8.99996V11.7272C1.36363 13.5622 2.15563 15.2155 3.4157 16.3636H1.63637C1.18451 16.3636 0.818176 16.7299 0.818176 17.1818C0.818176 17.6336 1.18451 18 1.63637 18H7.63639H13.6364C14.0883 18 14.4546 17.6336 14.4546 17.1818C14.4546 16.7299 14.0883 16.3636 13.6364 16.3636H11.8571C12.5193 15.7602 13.052 15.0173 13.4087 14.1818ZM13.9092 11.7273V9.81818H14.1819C14.9338 9.81818 15.5455 10.4299 15.5455 11.1818C15.5455 11.9338 14.9338 12.5455 14.1819 12.5455C14.1815 12.5455 14.1812 12.5455 14.1808 12.5455H13.8558C13.8908 12.2776 13.9092 12.0045 13.9092 11.7273Z" fill="#412507"/>
</g>
<defs>
<clipPath id="clip0">
<rect width="18" height="18" fill="white"/>
</clipPath>
</defs>
</svg>
