<svg width="14" height="14" viewBox="0 0 14 14" fill="none" xmlns="http://www.w3.org/2000/svg">
<g clip-path="url(#clip0)">
<path d="M0.920098 5.12944C0.993689 5.38175 1.09582 5.62505 1.22498 5.85333L0.85702 6.31741C0.736872 6.46909 0.750389 6.68536 0.885556 6.82203L1.51934 7.45581C1.65601 7.59248 1.87228 7.60448 2.02396 7.48434L2.48503 7.11938C2.72233 7.25607 2.97464 7.36268 3.23746 7.43778L3.30655 8.03101C3.32908 8.22325 3.49128 8.36743 3.68352 8.36743H4.58013C4.77236 8.36743 4.93456 8.22323 4.95709 8.03101L5.02317 7.4588C5.30552 7.38521 5.57586 7.27558 5.82967 7.1329L6.27572 7.48584C6.42741 7.60599 6.64368 7.59247 6.78035 7.4573L7.41413 6.82352C7.5508 6.68685 7.56281 6.47058 7.44267 6.31889L7.09574 5.87885C7.23991 5.62953 7.35255 5.36371 7.42765 5.08587L7.96231 5.02429C8.15456 5.00176 8.29873 4.83956 8.29873 4.64733V3.75072C8.29873 3.55848 8.15455 3.39628 7.96231 3.37375L7.43516 3.31218C7.36305 3.03734 7.25493 2.77451 7.11678 2.52821L7.44118 2.1182C7.56133 1.96651 7.54781 1.75024 7.41264 1.61357L6.78036 0.981293C6.64369 0.844624 6.42742 0.832609 6.27574 0.952757L5.87775 1.26815C5.61943 1.11646 5.34307 1.00082 5.05323 0.92272L4.99315 0.407583C4.97062 0.215345 4.80842 0.071167 4.61618 0.071167H3.71958C3.52734 0.071167 3.36514 0.215345 3.34261 0.407583L3.28254 0.92272C2.98517 1.00232 2.70132 1.12247 2.43699 1.28016L2.02398 0.952757C1.87229 0.832609 1.65602 0.846125 1.51935 0.981293L0.885571 1.61508C0.748902 1.75175 0.736887 1.96801 0.857035 2.1197L1.20246 2.55674C1.06429 2.80605 0.959162 3.07188 0.890076 3.34822L0.337393 3.4113C0.145155 3.43383 0.000976562 3.59603 0.000976562 3.78826V4.68487C0.000976562 4.87711 0.145155 5.03931 0.337393 5.06184L0.920098 5.12944ZM4.16862 2.70394C4.98563 2.70394 5.65095 3.36926 5.65095 4.18627C5.65095 5.00328 4.98563 5.6686 4.16862 5.6686C3.35162 5.6686 2.68628 5.00328 2.68628 4.18627C2.68628 3.36926 3.35161 2.70394 4.16862 2.70394Z" fill="#412507"/>
<path d="M13.0317 5.35023L12.5586 4.95074C12.4129 4.82759 12.1981 4.83359 12.06 4.96426L11.7986 5.20906C11.5779 5.10243 11.3436 5.02733 11.1018 4.98378L11.0282 4.62333C10.9907 4.4371 10.818 4.30794 10.6287 4.32296L10.0114 4.37553C9.8222 4.39205 9.67351 4.54674 9.66751 4.73748L9.65551 5.10393C9.4182 5.18954 9.19442 5.30668 8.99017 5.45386L8.67779 5.24661C8.51857 5.14148 8.30682 5.17151 8.18368 5.31719L7.78419 5.79328C7.66102 5.93896 7.66703 6.15373 7.79767 6.2919L8.07103 6.58324C7.97639 6.79651 7.90881 7.0203 7.86978 7.25007L7.47929 7.32967C7.29306 7.36721 7.1639 7.53993 7.17892 7.72918L7.23149 8.34644C7.24801 8.53567 7.4027 8.68436 7.59343 8.69037L8.01546 8.70387C8.09208 8.90512 8.19269 9.09587 8.31433 9.27457L8.07855 9.63051C7.97342 9.78971 8.00346 10.0015 8.14912 10.1246L8.62221 10.5241C8.76791 10.6473 8.98266 10.6413 9.12084 10.5106L9.43023 10.2207C9.63298 10.3154 9.84623 10.3859 10.0655 10.428L10.1511 10.8515C10.1887 11.0378 10.3614 11.1669 10.5506 11.1519L11.1679 11.0993C11.3571 11.0828 11.5058 10.9281 11.5118 10.7374L11.5253 10.3229C11.7506 10.2433 11.9639 10.1351 12.1606 10.0015L12.5015 10.2268C12.6607 10.3319 12.8725 10.3018 12.9956 10.1562L13.3951 9.68308C13.5183 9.5374 13.5123 9.32263 13.3816 9.18446L13.1068 8.89312C13.2074 8.67985 13.281 8.45457 13.323 8.22327L13.6985 8.14668C13.8847 8.10913 14.0139 7.93642 13.9989 7.74717L13.9463 7.1299C13.9298 6.94067 13.7751 6.79199 13.5844 6.78598L13.2074 6.77396C13.1293 6.55469 13.0242 6.34745 12.8935 6.1552L13.0992 5.84582C13.2074 5.68665 13.1774 5.47339 13.0317 5.35023ZM10.7053 8.91863C10.0385 8.97572 9.44972 8.47859 9.39417 7.81178C9.33708 7.14495 9.83423 6.55621 10.501 6.50064C11.1679 6.44357 11.7566 6.9407 11.8122 7.60751C11.8693 8.27435 11.3721 8.86308 10.7053 8.91863Z" fill="#412507"/>
<path d="M3.07876 10.5796C2.88953 10.5991 2.74385 10.7583 2.74235 10.9491L2.73784 11.3291C2.73484 11.5198 2.87601 11.682 3.06525 11.706L3.34459 11.7421C3.39115 11.9118 3.45723 12.074 3.54284 12.2272L3.36261 12.4495C3.24246 12.5981 3.25148 12.8114 3.38514 12.9481L3.65097 13.2199C3.78463 13.3566 3.9979 13.3716 4.14959 13.2544L4.37335 13.0817C4.53104 13.1749 4.69776 13.2485 4.87196 13.2995L4.902 13.5879C4.92153 13.7771 5.08072 13.9228 5.27146 13.9243L5.65144 13.9288C5.84216 13.9318 6.00438 13.7906 6.02841 13.6014L6.06295 13.328C6.2522 13.2815 6.43243 13.2109 6.60362 13.1178L6.81388 13.2875C6.96257 13.4076 7.17584 13.3986 7.31251 13.265L7.58435 12.9991C7.72102 12.8655 7.73604 12.6522 7.61891 12.5005L7.45818 12.2917C7.5573 12.1265 7.63391 11.9508 7.68648 11.7661L7.93578 11.7406C8.12502 11.721 8.27068 11.5618 8.2722 11.3711L8.27669 10.9911C8.27971 10.8004 8.13854 10.6382 7.9493 10.6142L7.70598 10.5826C7.65943 10.3994 7.59036 10.2222 7.50025 10.057L7.65193 9.87073C7.77208 9.72205 7.76307 9.50879 7.62941 9.37212L7.36359 9.10028C7.22993 8.9636 7.01663 8.94858 6.86496 9.06574L6.68322 9.20541C6.51202 9.10178 6.32878 9.02219 6.13656 8.96812L6.11251 8.73233C6.09299 8.54308 5.93381 8.39741 5.74306 8.39591L5.36309 8.3914C5.17235 8.3884 5.01015 8.52958 4.98611 8.71881L4.95607 8.95311C4.75784 9.00416 4.5671 9.08227 4.38988 9.18439L4.20215 9.0312C4.05347 8.91105 3.84019 8.92007 3.70352 9.05372L3.43018 9.32107C3.29351 9.45472 3.27849 9.668 3.39564 9.81967L3.55634 10.0269C3.46322 10.1921 3.38963 10.3678 3.34157 10.5526L3.07876 10.5796ZM5.5313 10.1501C6.07647 10.1561 6.51349 10.6052 6.5075 11.1503C6.5015 11.6955 6.05242 12.1325 5.50725 12.1265C4.96208 12.1205 4.52505 11.6715 4.53104 11.1263C4.53707 10.5811 4.98612 10.1441 5.5313 10.1501Z" fill="#412507"/>
</g>
<defs>
<clipPath id="clip0">
<rect width="14" height="14" fill="white"/>
</clipPath>
</defs>
</svg>
