<svg width="19" height="12" viewBox="0 0 19 12" fill="none" xmlns="http://www.w3.org/2000/svg">
<path d="M9.49996 3.60004C8.07063 3.60004 6.90906 4.67602 6.90906 6.00004C6.90906 7.32405 8.07063 8.40004 9.49996 8.40004C10.9293 8.40004 12.0909 7.32405 12.0909 6.00004C12.0909 4.67602 10.9293 3.60004 9.49996 3.60004Z" fill="#412507"/>
<path d="M9.5 0C5.18181 0 1.4941 2.48798 0 6C1.4941 9.51199 5.18181 12 9.5 12C13.8225 12 17.5059 9.51199 19 6C17.5059 2.48798 13.8225 0 9.5 0ZM9.5 9.99998C7.11637 9.99998 5.18181 8.20796 5.18181 5.99996C5.18181 3.79196 7.11637 1.99999 9.5 1.99999C11.8836 1.99999 13.8182 3.792 13.8182 6C13.8182 8.208 11.8836 9.99998 9.5 9.99998Z" fill="#412507"/>
</svg>
