<svg width="18" height="18" viewBox="0 0 18 18" fill="none" xmlns="http://www.w3.org/2000/svg">
<g clip-path="url(#clip0)">
<path d="M17.5141 7.82913C17.5137 7.82872 17.5133 7.82831 17.5129 7.8279L10.1703 0.485596C9.85736 0.172485 9.44125 0 8.99864 0C8.55603 0 8.13992 0.172348 7.82681 0.485458L0.488086 7.82405C0.485614 7.82652 0.483142 7.82913 0.48067 7.8316C-0.16203 8.47801 -0.160931 9.52679 0.483829 10.1716C0.7784 10.4663 1.16745 10.637 1.58342 10.6548C1.60031 10.6565 1.61734 10.6573 1.63451 10.6573H1.92716V16.0608C1.92716 17.13 2.79714 18 3.86666 18H6.73931C7.03044 18 7.26665 17.7639 7.26665 17.4727V13.2363C7.26665 12.7484 7.66353 12.3515 8.15146 12.3515H9.84583C10.3338 12.3515 10.7306 12.7484 10.7306 13.2363V17.4727C10.7306 17.7639 10.9667 18 11.258 18H14.1306C15.2001 18 16.0701 17.13 16.0701 16.0608V10.6573H16.3415C16.784 10.6573 17.2001 10.4849 17.5133 10.1718C18.1588 9.52597 18.159 8.4754 17.5141 7.82913Z" fill="#412507"/>
</g>
<defs>
<clipPath id="clip0">
<rect width="18" height="18" fill="white"/>
</clipPath>
</defs>
</svg>
