<svg width="12" height="12" viewBox="0 0 12 12" fill="none" xmlns="http://www.w3.org/2000/svg">
<g clip-path="url(#clip0)">
<path d="M6.125 3H2.875C2.3925 3 2 2.6075 2 2.125V1.375C2 1.168 2.168 1 2.375 1H3.177C3.341 0.4235 3.8715 0 4.5 0C5.1285 0 5.659 0.4235 5.823 1H6.625C6.832 1 7 1.168 7 1.375V2.125C7 2.6075 6.6075 3 6.125 3Z" fill="#412507"/>
<path d="M7.625 1.5H7.5V2.125C7.5 2.8835 6.8835 3.5 6.125 3.5H2.875C2.1165 3.5 1.5 2.8835 1.5 2.125V1.5H1.375C0.6165 1.5 0 2.1165 0 2.875V10.625C0 11.3835 0.6165 12 1.375 12H7.625C8.3835 12 9 11.3835 9 10.625V2.875C9 2.1165 8.3835 1.5 7.625 1.5ZM7.125 10.5H1.875C1.668 10.5 1.5 10.332 1.5 10.125C1.5 9.918 1.668 9.75 1.875 9.75H7.125C7.332 9.75 7.5 9.918 7.5 10.125C7.5 10.332 7.332 10.5 7.125 10.5ZM7.125 9H1.875C1.668 9 1.5 8.832 1.5 8.625C1.5 8.418 1.668 8.25 1.875 8.25H7.125C7.332 8.25 7.5 8.418 7.5 8.625C7.5 8.832 7.332 9 7.125 9ZM7.125 7.5H1.875C1.668 7.5 1.5 7.332 1.5 7.125C1.5 6.918 1.668 6.75 1.875 6.75H7.125C7.332 6.75 7.5 6.918 7.5 7.125C7.5 7.332 7.332 7.5 7.125 7.5ZM7.125 6H1.875C1.668 6 1.5 5.832 1.5 5.625C1.5 5.418 1.668 5.25 1.875 5.25H7.125C7.332 5.25 7.5 5.418 7.5 5.625C7.5 5.832 7.332 6 7.125 6Z" fill="#412507"/>
</g>
<defs>
<clipPath id="clip0">
<rect width="12" height="12" fill="white"/>
</clipPath>
</defs>
</svg>
