<svg width="20" height="25" viewBox="0 0 20 25" fill="none" xmlns="http://www.w3.org/2000/svg">
<path d="M19.4444 9.375H17.7778V7.29165C17.7778 3.271 14.2887 0 10 0C5.71125 0 2.22224 3.271 2.22224 7.29165V9.375H0.555573C0.24849 9.375 0 9.60796 0 9.89585V22.9167C0 24.0657 0.996615 25 2.22224 25H17.7778C19.0034 25 20 24.0657 20 22.9167V9.89585C20 9.60796 19.7515 9.375 19.4444 9.375ZM11.6634 20.255C11.6808 20.402 11.6304 20.5495 11.5251 20.6599C11.4198 20.7703 11.269 20.8333 11.1111 20.8333H8.88891C8.73104 20.8333 8.58021 20.7703 8.47495 20.6599C8.36969 20.5496 8.31922 20.4021 8.33661 20.255L8.68708 17.3004C8.11797 16.9124 7.77781 16.2984 7.77781 15.625C7.77781 14.476 8.77443 13.5417 10.0001 13.5417C11.2257 13.5417 12.2223 14.476 12.2223 15.625C12.2223 16.2984 11.8821 16.9124 11.313 17.3004L11.6634 20.255ZM14.4444 9.375H5.55557V7.29165C5.55557 4.99419 7.54938 3.125 10 3.125C12.4506 3.125 14.4444 4.99419 14.4444 7.29165V9.375Z" fill="#412507"/>
</svg>
