<svg height="512" viewBox="0 0 512 512" width="512" xmlns="http://www.w3.org/2000/svg"><g id="filled_outline" data-name="filled outline"><path d="m411.344 202.521a136 136 0 0 0 -121.311-74.521h-8.911a136 136 0 0 0 -121.311 74.521 136 136 0 0 0 0 122.958 135.856 135.856 0 0 0 44.196 50.521h163.141a135.838 135.838 0 0 0 44.2-50.521 136 136 0 0 0 -.004-122.958z" fill="#e4e4e2"/><path d="m426.03 264a135.933 135.933 0 0 1 -58.88 112h-163.14a135.938 135.938 0 0 1 -52.91-151.87l.9-.13c27.2 0 27.2 16 54.4 16s27.2-16 54.39-16 27.2 16 54.4 16 27.2-16 54.41-16c27.17 0 27.2 15.96 54.3 16a136.229 136.229 0 0 1 2.13 24z" fill="#e4e4e2"/><path d="m426.03 264a135.933 135.933 0 0 1 -58.88 112h-163.14a135.938 135.938 0 0 1 -52.91-151.87l.9-.13c27.2 0 27.2 16 54.4 16s27.2-16 54.39-16 27.2 16 54.4 16 27.2-16 54.41-16c27.17 0 27.2 15.96 54.3 16a136.229 136.229 0 0 1 2.13 24z" fill="#4c2b09"/><path d="m296 176h32v16h-32z" fill="#fbfbf9"/><path d="m296 208h32v16h-32z" fill="#fbfbf9"/><path d="m296 240h32v16h-32z" fill="#834b10"/><path d="m296 272h32v16h-32z" fill="#834b10"/><path d="m373.578 120h54.422a60 60 0 0 1 60 60v84a32 32 0 0 1 -32-32v-45.578a34.423 34.423 0 0 0 -15.328-28.641 34.428 34.428 0 0 0 -19.094-5.781h-48z" fill="#683b0d"/><path d="m205.578 376h162.422v32h-162.422z" fill="#683b0d"/><path d="m344 336h16v16h-16z" fill="#744630"/><path d="m368 312h16v16h-16z" fill="#744630"/><path d="m344 280h16v16h-16z" fill="#744630"/><path d="m368 256h16v16h-16z" fill="#744630"/><path d="m272 272h-232v64a104 104 0 0 0 104 104 104.032 104.032 0 0 0 96.669-65.579 56 56 0 1 0 31.331-102.421zm0 80a24 24 0 1 1 24-24 24 24 0 0 1 -24 24z" fill="#e4e4e2"/><path d="m87.974 384a8 8 0 0 1 -7.387-4.924c-1.177-2.822-2.248-5.722-3.184-8.619a8 8 0 0 1 15.225-4.918c.8 2.48 1.719 4.963 2.726 7.381a8 8 0 0 1 -7.38 11.08zm-7.974-40a8 8 0 0 1 -8-8v-32a8 8 0 0 1 16 0v32a8 8 0 0 1 -8 8z" fill="#fbfbf9"/><path d="m24 408h240a0 0 0 0 1 0 0v12a20 20 0 0 1 -20 20h-200a20 20 0 0 1 -20-20v-12a0 0 0 0 1 0 0z" fill="#cbcbcb"/><g fill="#f7ba61"><path d="m76 248a8 8 0 0 1 -8-8 38.878 38.878 0 0 1 4.845-19.579c1.832-3.664 3.155-6.311 3.155-12.421s-1.323-8.759-3.155-12.423a8 8 0 1 1 14.311-7.155 41.982 41.982 0 0 1 0 39.156c-1.833 3.663-3.156 6.31-3.156 12.422a8 8 0 0 1 -8 8z"/><path d="m76.854 176a8.008 8.008 0 0 1 -7.791-9.853 42.376 42.376 0 0 1 3.782-9.729c1.832-3.661 3.155-6.308 3.155-12.418a8 8 0 0 1 16 0 38.864 38.864 0 0 1 -4.845 19.576 27.577 27.577 0 0 0 -2.525 6.275 8 8 0 0 1 -7.776 6.149z"/><path d="m116 248a8 8 0 0 1 -8-8 38.878 38.878 0 0 1 4.844-19.578 8 8 0 0 1 14.311 7.155c-1.832 3.664-3.155 6.311-3.155 12.423a8 8 0 0 1 -8 8z"/><path d="m123.146 208a8 8 0 0 1 -7.776-6.151 27.559 27.559 0 0 0 -2.525-6.275 41.979 41.979 0 0 1 0-39.156c1.832-3.661 3.155-6.308 3.155-12.418a8 8 0 0 1 16 0 38.872 38.872 0 0 1 -4.845 19.577c-1.832 3.663-3.155 6.31-3.155 12.423s1.323 8.759 3.155 12.423a42.376 42.376 0 0 1 3.782 9.729 8.008 8.008 0 0 1 -7.791 9.848z"/><path d="m36 248a8 8 0 0 1 -8-8 38.866 38.866 0 0 1 4.845-19.578 27.6 27.6 0 0 0 2.524-6.273 8 8 0 0 1 15.567 3.7 42.359 42.359 0 0 1 -3.781 9.727c-1.832 3.665-3.155 6.313-3.155 12.424a8 8 0 0 1 -8 8z"/><path d="m32.845 195.577a41.981 41.981 0 0 1 0-39.157c1.832-3.663 3.155-6.31 3.155-12.42a8 8 0 0 1 16 0 38.872 38.872 0 0 1 -4.845 19.577c-1.832 3.663-3.155 6.31-3.155 12.423s1.323 8.758 3.154 12.421z"/></g><path d="m368 120h24v32h-24z" fill="#4c2b09"/><path d="m373.578 152h-168l-24-56 192 8z" fill="#683b0d"/><path d="m373.578 104h-184a16 16 0 0 1 -16-16 16 16 0 0 1 16-16h146c24.568 0 38 13.431 38 30z" fill="#834b10"/><path d="m296 176h32v16h-32z"/><path d="m296 208h32v16h-32z"/><path d="m428 112h-46.422v-10a35.192 35.192 0 0 0 -12.625-27.325c-8.27-6.984-19.81-10.675-33.375-10.675h-146a23.993 23.993 0 0 0 -11 45.322l16.738 39.054a143.856 143.856 0 0 0 -58.18 115.624h-97.136a8 8 0 0 0 -8 8v64a111.419 111.419 0 0 0 20.073 64h-28.073a8 8 0 0 0 -8 8v12a28.032 28.032 0 0 0 28 28h200a28.032 28.032 0 0 0 28-28v-4h93.578a8 8 0 0 0 8-8v-26.759a143.925 143.925 0 0 0 16.034-221.241h31.966a26.423 26.423 0 0 1 26.422 26.422v45.578a40.045 40.045 0 0 0 40 40 8 8 0 0 0 8-8v-84a68.077 68.077 0 0 0 -68-68zm-238.422-16a8 8 0 1 1 0-16h146c15.327 0 26.093 6.108 29.129 16zm176 16v32h-154.724l-13.715-32zm-317.578 224v-56h224a48 48 0 1 1 -26.85 87.794 8 8 0 0 0 -11.915 3.67 95.485 95.485 0 0 1 -17.713 28.536h-143.048a95.493 95.493 0 0 1 -24.474-64zm208 84a12.013 12.013 0 0 1 -12 12h-200a12.013 12.013 0 0 1 -12-12v-4h224zm101.578-20h-121.655a111.067 111.067 0 0 0 8.45-14.254 63.971 63.971 0 0 0 58.675-1.808 8.068 8.068 0 0 0 .952.062h53.578zm46.63-78.137a128.356 128.356 0 0 1 -39.589 46.137h-42.712a63.812 63.812 0 0 0 0-80h6.093v-16h-24v.61a63.586 63.586 0 0 0 -32-8.61h-118.865a128.152 128.152 0 0 1 4.011-31.756c8 .786 12.523 3.432 18 6.652 7.254 4.267 15.477 9.1 31.254 9.1s24-4.837 31.256-9.1c6.549-3.853 11.722-6.9 23.143-6.9s16.593 3.043 23.142 6.9a70.154 70.154 0 0 0 12.059 6.014v11.09h32v-9.259c8.028-1.717 13.468-4.915 18.449-7.845 6.55-3.853 11.724-6.9 23.147-6.9s16.6 3.043 23.146 6.9c6.081 3.577 12.861 7.542 24.182 8.736a128.319 128.319 0 0 1 -12.716 74.231zm0-115.725a127.159 127.159 0 0 1 9.444 24.757c-5.016-1.22-8.632-3.34-12.8-5.791-7.255-4.267-15.479-9.1-31.258-9.1s-24 4.837-31.258 9.1c-6.55 3.853-11.724 6.9-23.147 6.9s-16.592-3.043-23.141-6.9c-7.255-4.267-15.478-9.1-31.255-9.1s-24 4.837-31.256 9.1c-6.549 3.853-11.722 6.9-23.143 6.9s-16.592-3.043-23.141-6.9c-5.507-3.239-11.581-6.8-21.086-8.332q2.148-5.411 4.778-10.635a128.319 128.319 0 0 1 39.568-46.137h158.113a128.384 128.384 0 0 1 39.582 46.138zm75.792 48.491a24.042 24.042 0 0 1 -16-22.629v-45.578a42.423 42.423 0 0 0 -42.422-42.422h-40v-16h46.422a52.059 52.059 0 0 1 52 52z"/><path d="m344 336h16v16h-16z"/><path d="m368 312h16v16h-16z"/><path d="m344 280h16v16h-16z"/><path d="m368 256h16v16h-16z"/><path d="m272 360a32 32 0 1 0 -32-32 32.036 32.036 0 0 0 32 32zm0-48a16 16 0 1 1 -16 16 16.019 16.019 0 0 1 16-16z"/><path d="m80 344a8 8 0 0 0 8-8v-32a8 8 0 0 0 -16 0v32a8 8 0 0 0 8 8z"/><path d="m82.556 360.388a8 8 0 0 0 -5.156 10.071c.936 2.9 2.007 5.8 3.184 8.619a8 8 0 1 0 14.767-6.156c-1.007-2.418-1.924-4.9-2.726-7.381a8 8 0 0 0 -10.069-5.153z"/><path d="m76 248a8 8 0 0 0 8-8c0-6.112 1.323-8.759 3.155-12.423a41.982 41.982 0 0 0 0-39.156 8 8 0 1 0 -14.311 7.155c1.833 3.664 3.156 6.311 3.156 12.424s-1.323 8.758-3.155 12.422a38.878 38.878 0 0 0 -4.845 19.578 8 8 0 0 0 8 8z"/><path d="m75 175.783a7.991 7.991 0 0 0 9.634-5.932 27.577 27.577 0 0 1 2.525-6.275 38.864 38.864 0 0 0 4.841-19.576 8 8 0 0 0 -16 0c0 6.11-1.323 8.757-3.155 12.42a42.376 42.376 0 0 0 -3.782 9.729 8 8 0 0 0 5.937 9.634z"/><path d="m116 248a8 8 0 0 0 8-8c0-6.112 1.323-8.759 3.155-12.423a8 8 0 0 0 -14.311-7.155 38.878 38.878 0 0 0 -4.844 19.578 8 8 0 0 0 8 8z"/><path d="m115.37 201.851a8 8 0 0 0 15.567-3.7 42.376 42.376 0 0 0 -3.782-9.729c-1.832-3.666-3.155-6.313-3.155-12.422s1.323-8.757 3.155-12.42a38.872 38.872 0 0 0 4.845-19.58 8 8 0 0 0 -16 0c0 6.11-1.323 8.757-3.155 12.42a41.979 41.979 0 0 0 0 39.156 27.559 27.559 0 0 1 2.525 6.275z"/><path d="m36 248a8 8 0 0 0 8-8c0-6.111 1.323-8.759 3.155-12.422a42.359 42.359 0 0 0 3.781-9.727 8 8 0 0 0 -15.567-3.7 27.6 27.6 0 0 1 -2.524 6.273 38.866 38.866 0 0 0 -4.845 19.576 8 8 0 0 0 8 8z"/><path d="m47.154 188.418c-1.831-3.663-3.154-6.31-3.154-12.418s1.323-8.757 3.155-12.42a38.872 38.872 0 0 0 4.845-19.58 8 8 0 0 0 -16 0c0 6.11-1.323 8.757-3.155 12.42a41.981 41.981 0 0 0 0 39.157z"/></g></svg>