<svg width="12" height="12" viewBox="0 0 12 12" fill="none" xmlns="http://www.w3.org/2000/svg">
<g clip-path="url(#clip0)">
<path d="M10.5084 1.49156L9.01687 0L7.27673 1.74016L8.51972 4.97187L10.5084 1.49156Z" fill="#FF3E3A"/>
<path d="M10.5084 1.49158L7.77393 4.2261L10.2598 4.72328L12 2.98314L10.5084 1.49158Z" fill="#CC3245"/>
<path d="M0.801938 9.52734L0 11.9999L2.63166 10.3627L0.801938 9.52734Z" fill="#373E9F"/>
<path d="M0.00012207 11.9999L2.47271 11.198L2.13455 9.86548L0.00012207 11.9999Z" fill="#340D66"/>
<path d="M4.41508 8.57944L1.43198 7.58508L0.802002 9.52747L1.63734 10.3628L4.41508 8.57944Z" fill="#FFE7B5"/>
<path d="M1.63733 10.3627L2.47269 11.198L4.41505 10.5681L3.91787 8.08215L1.63733 10.3627Z" fill="#FFD06A"/>
<path d="M2.92346 9.07656L4.415 10.5681L10.2599 4.72322L8.76833 3.23169L4.87376 5.13753L2.92346 9.07656Z" fill="#FF9A27"/>
<path d="M1.4314 7.58472L7.27538 1.74074L8.7667 3.23206L2.92272 9.07604L1.4314 7.58472Z" fill="#FFB820"/>
</g>
<defs>
<clipPath id="clip0">
<rect width="12" height="12" fill="white"/>
</clipPath>
</defs>
</svg>
