<svg width="512" height="512" viewBox="0 0 512 512" fill="none" xmlns="http://www.w3.org/2000/svg">
<path d="M257 210C232.186 210 212 230.186 212 255C212 279.814 232.186 300 257 300C281.814 300 302 279.814 302 255C302 230.186 281.814 210 257 210Z" fill="#412507"/>
<path d="M255 0C114.39 0 0 114.39 0 255C0 395.61 114.39 512 255 512C395.61 512 512 395.61 512 255C512 114.39 395.61 0 255 0ZM362 330C341.727 330 323.848 319.839 312.983 304.404C299.23 319.971 279.354 330 257 330C215.647 330 182 296.353 182 255C182 213.647 215.647 180 257 180C273.948 180 289.426 185.865 302 195.383V195C302 186.709 308.709 180 317 180C325.291 180 332 186.709 332 195C332 228.36 332 236.625 332 270C332 286.538 345.462 300 362 300C378.538 300 392 286.538 392 270C392 169.609 325.568 120 257 120C182.557 120 122 180.557 122 255C122 329.443 182.557 390 257 390C287 390 315.374 380.391 339.061 362.197C354.883 350.119 373.001 373.962 357.342 385.986C328.353 408.237 293.665 420 257 420C166.019 420 92 345.981 92 255C92 164.019 166.019 90 257 90C339.897 90 422 151.135 422 270C422 303.091 395.091 330 362 330Z" fill="#412507"/>
</svg>
