<svg width="12" height="12" viewBox="0 0 12 12" fill="none" xmlns="http://www.w3.org/2000/svg">
<path d="M7.5 1.875H6.75V0.75H5.25V1.875H4.5V0H7.5V1.875Z" fill="#62808C"/>
<path d="M8.625 12H3.375C2.75372 12 2.25 11.4963 2.25 10.875V3H9.75V10.875C9.75 11.4963 9.24628 12 8.625 12Z" fill="#FF3E3A"/>
<path d="M10.5 3.75H1.5V2.25C1.5 1.83582 1.83582 1.5 2.25 1.5H9.75C10.1642 1.5 10.5 1.83582 10.5 2.25V3.75Z" fill="#62808C"/>
<path d="M7.59368 6.09368C7.44729 5.94729 7.20989 5.94729 7.06341 6.09368L6.09368 7.06341L5.12395 6.09368C4.97747 5.94729 4.74007 5.94729 4.59368 6.09368C4.44729 6.24007 4.44729 6.47747 4.59368 6.62395L5.56341 7.59368L4.59368 8.56341C4.44729 8.70989 4.44729 8.94729 4.59368 9.09368C4.74007 9.24007 4.97747 9.24007 5.12395 9.09368L6.09368 8.12395L7.06341 9.09368C7.20989 9.24007 7.44729 9.24007 7.59368 9.09368C7.74007 8.94729 7.74007 8.70989 7.59368 8.56341L6.62395 7.59368L7.59368 6.62395C7.74007 6.47747 7.74007 6.24007 7.59368 6.09368Z" fill="white"/>
</svg>
