<svg width="18" height="18" viewBox="0 0 18 18" fill="none" xmlns="http://www.w3.org/2000/svg">
<path d="M9.00087 0C8.12844 0 7.4187 0.709734 7.4187 1.58217V7.94602C7.4187 8.81845 8.12844 9.52819 9.00087 9.52819C9.87331 9.52819 10.583 8.81845 10.583 7.94602V1.58217C10.583 0.709734 9.87331 0 9.00087 0Z" fill="#FCFCFC"/>
<path d="M14.2954 4.18215C13.6296 3.58157 12.6606 3.64988 12.0791 4.248C11.4944 4.84949 11.4492 5.86821 12.19 6.54356C13.3656 7.61214 13.9598 9.23158 13.6783 10.8653C13.2963 13.0825 11.368 14.8297 9.00081 14.8349C6.57605 14.8403 4.71846 13.05 4.33529 10.946C4.03657 9.30259 4.58768 7.65707 5.81087 6.54458C6.5495 5.87215 6.51094 4.84892 5.92457 4.24677C5.34213 3.64865 4.36732 3.58404 3.69566 4.19192C1.83558 5.87672 0.864634 8.3674 1.13477 10.892C1.56431 14.9061 4.95352 18 9.01944 18C13.0387 18 16.3296 14.8987 16.8371 11.1536C17.1909 8.54392 16.2407 5.93785 14.2954 4.18215Z" fill="#FCFCFC"/>
</svg>
