<svg width="12" height="12" viewBox="0 0 12 12" fill="none" xmlns="http://www.w3.org/2000/svg">
<path d="M10.125 0.421875H1.875C0.841095 0.421875 0 1.26297 0 2.29688V8.85938C0 9.89328 0.841095 10.7344 1.875 10.7344H8.27344C8.53235 10.7344 8.74219 10.5245 8.74219 10.2656C8.74219 10.0067 8.53235 9.79688 8.27344 9.79688H6.54694L5.46918 8.39868L8.88455 4.0546L11.1837 6.59573C11.3137 6.73956 11.5189 6.78836 11.6998 6.71869C11.8806 6.64893 12 6.47507 12 6.28125V2.29688C12 1.26297 11.1589 0.421875 10.125 0.421875V0.421875ZM11.0625 5.06451L9.207 3.01364C9.11435 2.91119 8.98105 2.85461 8.84317 2.85965C8.7052 2.8645 8.57629 2.92987 8.49088 3.03845L4.87875 7.63275L3.6525 6.04193C3.56378 5.92685 3.42664 5.85938 3.28125 5.85938C3.28116 5.85938 3.28107 5.85938 3.28098 5.85938C3.13559 5.85947 2.99835 5.92703 2.90973 6.0423L1.87811 7.38336C1.72028 7.58862 1.75864 7.88287 1.96381 8.04071C2.16907 8.19864 2.46332 8.16019 2.62125 7.95502L3.28162 7.09644L5.36325 9.79688H1.875C1.35809 9.79688 0.9375 9.37628 0.9375 8.85938V2.29688C0.9375 1.77997 1.35809 1.35938 1.875 1.35938H10.125C10.6419 1.35938 11.0625 1.77997 11.0625 2.29688V5.06451Z" fill="#3F3C32"/>
<path d="M3.28125 2.10938C2.5058 2.10938 1.875 2.74017 1.875 3.51562C1.875 4.29108 2.5058 4.92188 3.28125 4.92188C4.0567 4.92188 4.6875 4.29108 4.6875 3.51562C4.6875 2.74017 4.0567 2.10938 3.28125 2.10938ZM3.28125 3.98438C3.0228 3.98438 2.8125 3.77408 2.8125 3.51562C2.8125 3.25717 3.0228 3.04688 3.28125 3.04688C3.5397 3.04688 3.75 3.25717 3.75 3.51562C3.75 3.77408 3.5397 3.98438 3.28125 3.98438Z" fill="#3F3C32"/>
<path d="M10.9799 7.52206C10.9786 7.52069 10.9772 7.51923 10.9758 7.51785C10.7543 7.29474 10.4596 7.17188 10.1459 7.17188C9.83315 7.17188 9.53927 7.29401 9.31798 7.51584L8.41299 8.40848C8.22869 8.59021 8.22668 8.88702 8.4085 9.07132C8.59023 9.25562 8.88705 9.25772 9.07134 9.0759L9.67715 8.47842V11.1094C9.67715 11.3683 9.88699 11.5781 10.1459 11.5781C10.4048 11.5781 10.6146 11.3683 10.6146 11.1094V8.49271L11.1945 9.09164C11.2864 9.18668 11.4088 9.23438 11.5313 9.23438C11.6487 9.23438 11.7663 9.19052 11.8573 9.10245C12.0433 8.92236 12.0481 8.62564 11.868 8.43961L10.9799 7.52206Z" fill="#3F3C32"/>
</svg>
