<svg width="15" height="15" viewBox="0 0 15 15" fill="none" xmlns="http://www.w3.org/2000/svg">
<path d="M7.5 0C3.36457 0 0 3.36457 0 7.5C0 11.6354 3.36457 15 7.5 15C11.6354 15 15 11.6354 15 7.5C15 3.36457 11.6354 0 7.5 0ZM7.5 2.18751C9.48149 2.18751 11.0938 3.79975 11.0938 5.78127C11.0938 7.76279 9.48149 9.375 7.5 9.375C5.51851 9.375 3.90624 7.76276 3.90624 5.78124C3.90624 3.79972 5.51851 2.18751 7.5 2.18751ZM7.5 13.75C5.4578 13.75 3.64687 12.7611 2.50567 11.2417C3.75595 10.6402 5.54145 9.99999 7.5 9.99999C9.4587 9.99999 11.2443 10.6402 12.4944 11.2417C11.3532 12.761 9.54223 13.75 7.5 13.75Z" fill="#412507"/>
</svg>
