<?xml version="1.0" standalone="no"?>
<!DOCTYPE svg PUBLIC "-//W3C//DTD SVG 20010904//EN"
 "http://www.w3.org/TR/2001/REC-SVG-20010904/DTD/svg10.dtd">
<svg version="1.0" xmlns="http://www.w3.org/2000/svg"
 width="700.000000pt" height="700.000000pt" viewBox="0 0 700.000000 700.000000"
 preserveAspectRatio="xMidYMid meet">
<metadata>
Created by potrace 1.11, written by Peter Selinger 2001-2013
</metadata>
<g transform="translate(0.000000,700.000000) scale(0.100000,-0.100000)"
fill="#000000" stroke="none">
<path d="M2511 6112 c-202 -51 -302 -269 -210 -459 26 -55 48 -79 129 -145 13
-11 46 -78 81 -163 4 -11 17 -40 27 -65 18 -42 88 -204 118 -277 l13 -31 -68
-56 c-324 -261 -562 -635 -665 -1044 -37 -143 -51 -246 -60 -422 l-3 -55 -687
-5 -688 -5 -29 -33 c-19 -21 -29 -44 -30 -65 -4 -157 -1 -941 5 -1009 19 -239
95 -468 226 -683 l40 -65 -210 0 -210 0 -32 -29 c-32 -28 -33 -33 -38 -118
-11 -193 21 -304 116 -397 47 -47 126 -90 185 -102 48 -10 2813 -11 2878 -1
176 26 305 173 317 359 2 33 5 63 8 65 2 3 298 5 658 6 716 2 683 -1 712 62
11 22 15 74 15 205 0 96 0 182 0 192 1 9 31 40 69 69 227 177 420 414 545 669
29 58 57 119 64 135 64 162 113 344 128 475 3 30 8 73 11 95 8 49 8 319 0 360
-2 17 -8 55 -11 85 -28 239 -145 560 -285 780 -65 102 -177 245 -249 318 l-52
52 38 1 c160 2 443 -2 468 -6 84 -16 175 -77 224 -149 64 -95 64 -94 66 -511
1 -271 5 -396 14 -435 55 -233 250 -403 486 -425 71 -6 123 14 143 57 10 21
13 161 12 645 0 340 -3 633 -5 651 -17 117 -26 153 -50 218 -51 135 -117 238
-219 340 -120 119 -259 199 -426 244 -80 22 -107 24 -470 28 -212 2 -386 5
-388 7 -1 1 -4 51 -7 111 -4 129 -26 207 -80 288 -83 126 -226 210 -410 242
-22 4 -517 8 -1101 8 -851 1 -1071 -1 -1113 -12z"/>
<path d="M530 5112 c-27 -23 -32 -37 -40 -100 -6 -45 -23 -104 -45 -154 -20
-45 -42 -108 -50 -142 -19 -81 -13 -213 14 -296 34 -104 27 -102 136 -48 52
27 95 51 95 55 -1 5 -9 32 -19 61 -29 85 -21 174 28 280 47 105 61 161 61 242
0 57 -3 65 -34 96 -45 45 -101 47 -146 6z"/>
<path d="M1088 5123 c-35 -22 -46 -46 -53 -121 -3 -39 -18 -89 -37 -130 -40
-89 -58 -139 -58 -168 0 -64 64 -121 125 -110 51 10 70 32 116 136 58 132 81
222 76 294 -3 51 -8 63 -35 87 -38 34 -91 38 -134 12z"/>
<path d="M1621 5110 c-17 -17 -32 -38 -32 -48 -1 -9 -3 -32 -5 -51 -4 -51 -13
-80 -50 -163 -76 -169 -76 -355 -1 -505 14 -27 30 -66 37 -88 28 -89 107 -125
176 -81 31 21 45 49 46 94 0 41 -5 57 -53 157 -32 65 -34 76 -33 170 0 95 2
104 38 178 82 171 82 326 0 357 -48 19 -89 12 -123 -20z"/>
<path d="M1044 4471 c-65 -40 -74 -90 -34 -182 18 -42 23 -72 24 -134 0 -72
-4 -88 -41 -170 -46 -101 -63 -170 -63 -251 0 -50 4 -60 34 -90 45 -45 101
-47 146 -6 27 23 32 37 40 100 6 47 23 102 45 153 83 183 83 368 1 527 -31 60
-101 84 -152 53z"/>
<path d="M529 4137 c-18 -12 -37 -35 -42 -52 -5 -16 -23 -59 -40 -95 -102
-222 -83 -380 46 -380 31 0 46 7 73 34 19 19 34 42 35 53 3 75 20 152 39 178
17 23 60 145 60 170 0 88 -98 141 -171 92z"/>
<path d="M1590 4032 c-55 -27 -105 -145 -114 -272 -7 -91 37 -150 112 -150 68
0 111 58 112 150 0 19 12 62 25 95 14 33 25 70 25 83 0 36 -27 80 -60 97 -37
19 -57 19 -100 -3z"/>
</g>
</svg>
