<svg id="coffee-make" enable-background="new 0 0 300 300" height="512" viewBox="0 0 300 300" width="512" xmlns="http://www.w3.org/2000/svg"><g><circle cx="152" cy="162" fill="#efefd2" r="86"/><g><path d="m86 212h-4c-22.091 0-40-17.909-40-40v-28h84v28c0 22.091-17.909 40-40 40z" fill="#b5a19c"/><path d="m86 216h-4c-24.262 0-44-19.738-44-44v-28c0-2.209 1.789-4 4-4h84c2.211 0 4 1.791 4 4v28c0 24.262-19.738 44-44 44zm-40-68v24c0 19.85 16.148 36 36 36h4c19.852 0 36-16.15 36-36v-24z" fill="#4c241d"/></g><g><path d="m126 144h-84c-4.418 0-8-3.582-8-8 0-4.418 3.582-8 8-8h84c4.418 0 8 3.582 8 8 0 4.418-3.582 8-8 8z" fill="#816982"/><path d="m126 148h-84c-6.617 0-12-5.383-12-12s5.383-12 12-12h84c6.617 0 12 5.383 12 12s-5.383 12-12 12zm-84-16c-2.207 0-4 1.795-4 4s1.793 4 4 4h84c2.207 0 4-1.795 4-4s-1.793-4-4-4z" fill="#4c241d"/></g><path d="m194 140h-60c-2.211 0-4-1.791-4-4s1.789-4 4-4h60c2.211 0 4 1.791 4 4s-1.789 4-4 4z" fill="#4c241d"/><g><path d="m260.485 148h-60.97c-3.046 0-5.515-2.469-5.515-5.515v-12.97c0-3.046 2.469-5.515 5.515-5.515h60.97c3.046 0 5.515 2.469 5.515 5.515v12.97c0 3.046-2.469 5.515-5.515 5.515z" fill="#bf7e68"/><path d="m260.484 152h-60.969c-5.246 0-9.516-4.27-9.516-9.516v-12.969c0-5.246 4.27-9.516 9.516-9.516h60.969c5.246 0 9.516 4.27 9.516 9.516v12.969c0 5.246-4.27 9.516-9.516 9.516zm-60.968-24c-.836 0-1.516.68-1.516 1.516v12.969c0 .836.68 1.516 1.516 1.516h60.969c.836 0 1.516-.68 1.516-1.516v-12.969c0-.836-.68-1.516-1.516-1.516z" fill="#4c241d"/></g><path d="m58 180c-2.211 0-4-1.791-4-4v-20c0-2.209 1.789-4 4-4s4 1.791 4 4v20c0 2.209-1.789 4-4 4z" fill="#4c241d"/><path d="m164 80c-7.719 0-14-6.281-14-14s6.281-14 14-14 14 6.281 14 14-6.281 14-14 14zm0-20c-3.309 0-6 2.691-6 6s2.691 6 6 6 6-2.691 6-6-2.691-6-6-6z" fill="#4c241d"/><path d="m114 116c-2.211 0-4-1.791-4-4s1.789-4 4-4c2.207 0 4-1.795 4-4s-1.793-4-4-4c-2.211 0-4-1.791-4-4s1.789-4 4-4c2.207 0 4-1.795 4-4s-1.793-4-4-4h-20c-2.211 0-4-1.791-4-4s1.789-4 4-4c2.207 0 4-1.795 4-4 0-.674-.191-1.342-.566-1.988-1.109-1.91-.465-4.357 1.445-5.469 1.91-1.117 4.359-.467 5.469 1.445 1.082 1.858 1.652 3.936 1.652 6.012 0 1.402-.242 2.748-.684 4h8.684c6.617 0 12 5.383 12 12 0 3.07-1.16 5.875-3.062 8 1.902 2.125 3.062 4.93 3.062 8 0 6.617-5.383 12-12 12z" fill="#bf7e68"/><path d="m94 116c-6.617 0-12-5.383-12-12 0-1.402.242-2.748.684-4h-12.684c-6.617 0-12-5.383-12-12 0-1.402.242-2.748.684-4h-8.684c-6.617 0-12-5.383-12-12s5.383-12 12-12h29.109c2.211 0 4 1.791 4 4s-1.789 4-4 4h-29.109c-2.207 0-4 1.795-4 4s1.793 4 4 4h20c2.211 0 4 1.791 4 4s-1.789 4-4 4c-2.207 0-4 1.795-4 4s1.793 4 4 4h24c2.211 0 4 1.791 4 4s-1.789 4-4 4c-2.207 0-4 1.795-4 4s1.793 4 4 4c2.211 0 4 1.791 4 4s-1.789 4-4 4z" fill="#bf7e68"/><g fill="#4c241d"><circle cx="218" cy="216" r="4"/><circle cx="182" cy="184" r="4"/><path d="m154 236c-1.023 0-2.047-.391-2.828-1.172l-12-12c-1.562-1.562-1.562-4.094 0-5.656s4.094-1.562 5.656 0l12 12c1.562 1.562 1.562 4.094 0 5.656-.781.781-1.805 1.172-2.828 1.172z"/><path d="m142 236c-1.023 0-2.047-.391-2.828-1.172-1.562-1.562-1.562-4.094 0-5.656l12-12c1.562-1.562 4.094-1.562 5.656 0s1.562 4.094 0 5.656l-12 12c-.781.781-1.805 1.172-2.828 1.172z"/></g></g></svg>